#N canvas 694 113 450 356 12;
#X obj 115 282 outlet~ G;
#X obj 215 282 outlet~ D;
#X obj 144 33 inlet message;
#X obj 88 132 pack f f f;
#X obj 88 158 vec3;
#X floatatom 183 133 5 0 0 0 - - - 0;
#X obj 88 105 unpack f f f f;
#X obj 146 75 route STROLL FLEE;
#X obj 245 134 pack f f f;
#X obj 245 160 vec3;
#X floatatom 340 135 5 0 0 0 - - - 0;
#X obj 245 107 unpack f f f f;
#X connect 2 0 7 0;
#X connect 3 0 4 0;
#X connect 6 0 3 0;
#X connect 6 1 3 1;
#X connect 6 2 3 2;
#X connect 6 3 5 0;
#X connect 7 0 6 0;
#X connect 7 1 11 0;
#X connect 8 0 9 0;
#X connect 11 0 8 0;
#X connect 11 1 8 1;
#X connect 11 2 8 2;
#X connect 11 3 10 0;
