#N canvas 2579 -539 1939 1016 12;
#X obj 214 487 outlet~ audio;
#X obj 347 214 tgl 19 0 empty empty empty 0 -10 0 12 #fcfcfc #000000 #000000 0 1;
#X floatatom 86 208 5 0 0 0 - - - 0;
#X obj 363 181 vmetro 0.5;
#X msg 63 310 play 0 2 1;
#X msg 221 310 play 0 2 1;
#X obj 39 345 sampler1~ samples/Animals/Bark1-Pixabay.wav 48000;
#X obj 215 374 sampler1~ samples/Animals/Bark2-Pixabay.wav 48000;
#X obj 400 343 sampler1~ samples/Animals/Howl-Pixabay.wav 48000;
#X msg 401 308 play 0 8 1;
#X obj 588 373 sampler1~ samples/Animals/Panting-Pixabay.wav 48000;
#X obj 566 414 *~ 1;
#X obj 388 266 select 0;
#X obj 381 219 random 60;
#X floatatom 346 265 5 0 0 0 - - - 0;
#X obj 60 155 tgl 19 0 empty empty empty 0 -10 0 12 #fcfcfc #000000 #000000 0 1;
#X obj 99 124 vmetro 0.5;
#X obj 139 211 select 0 1;
#X text 648 -49 When the dog is fleeing;
#X text 320 -66 When the dog is strolling;
#X floatatom 465 188 5 0 0 0 - - - 0;
#X obj 397 410 *~ 1;
#X floatatom 701 289 5 0 0 0 - - - 0;
#X obj 373 -36 inlet stroll;
#X obj 690 -12 inlet flee;
#X obj 374 -6 unpack f f f;
#X floatatom 326 28 5 0 0 0 - - - 0;
#X floatatom 379 31 5 0 0 0 - - - 0;
#X floatatom 427 33 5 0 0 0 - - - 0;
#X obj 344 61 != 1;
#X obj 392 63 != 1;
#X obj 440 62 != 1;
#X obj 357 90 ||;
#X obj 398 117 ||;
#X obj 433 150 tgl 19 0 empty empty empty 0 -10 0 12 #fcfcfc #000000 #000000 0 1;
#X floatatom 639 57 5 0 0 0 - - - 0;
#X floatatom 692 60 5 0 0 0 - - - 0;
#X floatatom 739 62 5 0 0 0 - - - 0;
#X obj 657 90 != 1;
#X obj 705 92 != 1;
#X obj 753 91 != 1;
#X obj 670 119 ||;
#X obj 708 146 ||;
#X obj 687 23 unpack f f f f;
#X obj 473 438 *~ 3;
#X obj 721 192 tgl 19 0 empty empty empty 0 -10 0 12 #fcfcfc #000000 #000000 0 1;
#X obj 460 125 f 0;
#X obj 463 97 vmetro 1;
#X obj 755 159 f 0;
#X obj 758 131 vmetro 1;
#X msg 581 309 loop 0 24 1;
#X msg 575 277 loadbang;
#X obj 112 182 random 16;
#X text 90 78 Always barking;
#X connect 3 0 1 0;
#X connect 3 0 13 0;
#X connect 4 0 6 0;
#X connect 5 0 7 0;
#X connect 6 0 0 0;
#X connect 7 0 0 0;
#X connect 8 0 21 0;
#X connect 9 0 8 0;
#X connect 10 0 11 0;
#X connect 11 0 44 0;
#X connect 12 0 9 0;
#X connect 13 0 12 0;
#X connect 13 0 14 0;
#X connect 16 0 15 0;
#X connect 16 0 52 0;
#X connect 17 0 4 0;
#X connect 17 1 5 0;
#X connect 20 0 21 1;
#X connect 21 0 44 0;
#X connect 22 0 11 1;
#X connect 23 0 25 0;
#X connect 24 0 43 0;
#X connect 25 0 26 0;
#X connect 25 0 29 1;
#X connect 25 1 27 0;
#X connect 25 1 30 1;
#X connect 25 2 28 0;
#X connect 25 2 31 1;
#X connect 26 0 29 0;
#X connect 27 0 30 0;
#X connect 28 0 31 0;
#X connect 29 0 32 0;
#X connect 30 0 32 1;
#X connect 31 0 33 1;
#X connect 32 0 33 0;
#X connect 33 0 34 0;
#X connect 34 0 20 0;
#X connect 35 0 38 0;
#X connect 36 0 39 0;
#X connect 37 0 40 0;
#X connect 38 0 41 0;
#X connect 39 0 41 1;
#X connect 40 0 42 1;
#X connect 41 0 42 0;
#X connect 42 0 45 0;
#X connect 43 0 35 0;
#X connect 43 0 38 1;
#X connect 43 1 36 0;
#X connect 43 1 39 1;
#X connect 43 2 37 0;
#X connect 43 2 40 1;
#X connect 44 0 0 0;
#X connect 45 0 22 0;
#X connect 46 0 34 0;
#X connect 47 0 46 0;
#X connect 48 0 45 0;
#X connect 49 0 48 0;
#X connect 50 0 10 0;
#X connect 51 0 50 0;
#X connect 52 0 2 0;
#X connect 52 0 17 0;
