#N canvas 0 50 450 300 12;
#X obj 28 21 inlet~ audio;
#X obj 262 23 camera-vectors;
#X obj 59 76 inlet position;
#X obj 274 241 outlet~ D;
#X obj 56 243 outlet~ G;
#X obj 57 219 delread4~ \$0-delay;
#X obj 273 220 delread4~ \$0-delay;
#X obj 28 44 delwrite~ \$0-delay 1000;
#X obj 337 55 vec3/crs;
#X obj 257 54 vec3/crs;
#X obj 257 75 *~ 0.1075;
#X obj 337 74 *~ 0.1075;
#X obj 57 154 vec3/len;
#X obj 57 175 /~ 343;
#X obj 274 155 vec3/len;
#X obj 274 176 /~ 343;
#X obj 57 133 vec3/sub;
#X obj 274 134 vec3/sub;
#X obj 257 96 vec3/add;
#X obj 337 95 vec3/add;
#X connect 0 0 7 0;
#X connect 1 0 18 1;
#X connect 1 0 19 1;
#X connect 1 1 8 0;
#X connect 1 1 9 1;
#X connect 1 2 8 1;
#X connect 1 2 9 0;
#X connect 2 0 16 0;
#X connect 2 0 17 0;
#X connect 5 0 4 0;
#X connect 6 0 3 0;
#X connect 8 0 11 0;
#X connect 9 0 10 0;
#X connect 10 0 18 0;
#X connect 11 0 19 0;
#X connect 12 0 13 0;
#X connect 13 0 5 0;
#X connect 14 0 15 0;
#X connect 15 0 6 0;
#X connect 16 0 12 0;
#X connect 17 0 14 0;
#X connect 18 0 16 1;
#X connect 19 0 17 1;
