#N canvas 3335 -487 1405 872 12;
#X obj 186 363 outlet~ audio;
#X obj 190 74 tgl 19 0 empty empty empty 0 -10 0 12 #fcfcfc #000000 #000000 0 1;
#X floatatom 166 115 5 0 0 0 - - - 0;
#X obj 203 26 vmetro 0.5;
#X obj 8 227 sampler1~ samples/Animals/Crow-Pixabay.wav 48000;
#X obj 184 255 sampler1~ samples/Animals/Crow2-Pixabay.wav 48000;
#X msg 32 192 play 0 2 1;
#X msg 252 189 play 0 2 1;
#X msg 370 190 play 0 7 1;
#X obj 369 225 sampler1~ samples/Animals/Seagull-Pixabay.wav 48000;
#X obj 242 116 select 0 1 2 3 4;
#X text 306 30 Toutes les secondes;
#X text 391 116 1 chance sur 10 de produire un son Les sons de corbeau ayant plus de chance de se jouer par rapport aux mouettes.;
#X obj 235 79 random 40;
#X connect 3 0 1 0;
#X connect 3 0 13 0;
#X connect 4 0 0 0;
#X connect 5 0 0 0;
#X connect 6 0 4 0;
#X connect 7 0 5 0;
#X connect 8 0 9 0;
#X connect 9 0 0 0;
#X connect 10 0 6 0;
#X connect 10 1 7 0;
#X connect 10 2 8 0;
#X connect 10 3 6 0;
#X connect 10 4 7 0;
#X connect 13 0 2 0;
#X connect 13 0 10 0;
