#N canvas 80 177 1801 640 10;
#N canvas 475 437 395 449 network 0;
#X msg 25 113 listen 3000;
#X msg 58 150 listen 0;
#X obj 25 86 loadbang;
#X text 144 151 <- Stop listeneing;
#X text 142 113 <- Start listeneing on port 3000;
#X text 24 17 This is the default gdx-pd remote configuration.;
#X text 24 34 All server/client are automatically started;
#X obj 25 226 oscparse;
#X obj 25 253 list trim;
#X obj 25 303 list split 1;
#X obj 25 371 list;
#X obj 25 335 t b s;
#X obj 32 395 send;
#X obj 25 200 netreceive -b -u;
#X obj 25 277 route send;
#X connect 0 0 13 0;
#X connect 1 0 13 0;
#X connect 2 0 0 0;
#X connect 7 0 8 0;
#X connect 8 0 14 0;
#X connect 9 0 11 0;
#X connect 9 1 10 1;
#X connect 10 0 12 0;
#X connect 11 0 10 0;
#X connect 11 1 12 1;
#X connect 13 0 7 0;
#X connect 14 0 9 0;
#X restore 24 61 pd network;
#X obj 206 76 r map;
#X obj 206 104 tgl 15 0 empty empty empty 17 7 0 10 #fcfcfc #000000 #000000 0 1;
#X obj 347 105 r chest;
#X obj 347 168 unpack f f f f f;
#X floatatom 331 202 5 0 0 0 - - - 0;
#X obj 374 202 pack f f f;
#X floatatom 456 204 5 0 0 0 - - - 0;
#X obj 796 80 r forest;
#X obj 864 80 r water;
#X obj 1298 92 r move;
#X obj 947 82 r altitude;
#X floatatom 947 104 5 0 0 0 - - - 0;
#X floatatom 864 102 5 0 0 0 - - - 0;
#X floatatom 796 102 5 0 0 0 - - - 0;
#X floatatom 1298 188 5 0 0 0 - - - 0;
#X floatatom 1364 187 5 0 0 0 - - - 0;
#X floatatom 1431 186 5 0 0 0 - - - 0;
#X obj 1271 195 bng 15 250 50 0 empty empty empty 17 7 0 10 #fcfcfc #000000 #000000;
#X obj 1344 188 bng 15 250 50 0 empty empty empty 17 7 0 10 #fcfcfc #000000 #000000;
#X obj 1413 188 bng 15 250 50 0 empty empty empty 17 7 0 10 #fcfcfc #000000 #000000;
#X obj 374 224 vec3;
#X obj 1298 136 route walking swimming diving;
#X text 202 22 Map toggle : 0 off 1 on, f 12;
#X text 12 19 network listener do not remove, f 16;
#X text 540 17 camera : position (x \, y \, z) \, direction (x \, y \, z) \, head-up (x \, y \, z), f 20;
#X text 933 14 ground altitude at camera position relative to water level (in meters), f 18;
#X text 1303 22 player status (walking \, swimming or diving) and velocity (in meters per seconds), f 25;
#X obj 561 107 camera-vectors;
#X obj 520 153 vec3;
#X obj 600 153 vec3;
#X obj 680 153 vec3;
#X obj 1298 114 list trim;
#X obj 347 136 route 0 1 2;
#X obj 39 132 help;
#X text 351 19 3 nearset chest : index (0 \, 1 \, 2) \, seed (0 to 1) \, position (x \, y \, z) \, occlusion (0 to 1), f 19;
#X obj 1573 104 r animal;
#X obj 1573 171 route 0 1 2;
#X obj 1573 246 pack f f f;
#X obj 1573 272 vec3;
#X floatatom 1668 247 5 0 0 0 - - - 0;
#X obj 1573 148 route LAND WATER AIR;
#X obj 1573 126 list trim;
#X obj 1573 219 unpack f f f f;
#X text 13 108 Library help;
#X obj 1112 41 loadbang;
#X text 1109 15 House static position;
#X obj 1090 109 vec3;
#X text 815 16 surrounding forest and water sensor (0 to 1), f 13;
#X obj 1573 194 route STROLL FLEE;
#X text 1551 15 nearset animals (max 3 per type) : type (LAND WATER AIR) \, index (0 \, 1 \, 2) \, state (STROLL FLEE) \, position (x \, y \, z) \, occlusion (0 or 1), f 28;
#N canvas 814 173 975 724 map 0;
#X obj 82 19 inlet active;
#X obj 227 14 tgl 16 0 empty empty empty 0 -8 0 10 #fcfcfc #000000 #000000 0 1;
#X obj 107 324 dac~;
#X obj 104 281 *~;
#X obj 90 169 hsl 136 16 20 20000 0 0 empty empty empty -2 -8 0 10 #fcfcfc #000000 #000000 0 1;
#X obj 33 165 noise~;
#X obj 57 205 lop~;
#X obj 146 75 select 0 1;
#X obj 268 237 *~;
#X obj 422 166 ad~ 0 200;
#X obj 342 167 ad~ 200 0;
#X obj 198 323 outlet~ audio;
#X obj 57 242 *~ 10;
#X obj 44 120 ad~ 0 80;
#X obj 263 168 osc~ 300;
#X obj 143 120 ad~ 80 40;
#X connect 0 0 7 0;
#X connect 1 0 7 0;
#X connect 3 0 2 0;
#X connect 3 0 11 0;
#X connect 4 0 6 1;
#X connect 5 0 6 0;
#X connect 6 0 12 0;
#X connect 7 0 10 0;
#X connect 7 0 13 0;
#X connect 7 1 9 0;
#X connect 7 1 15 0;
#X connect 8 0 3 0;
#X connect 9 0 8 1;
#X connect 10 0 8 1;
#X connect 12 0 3 0;
#X connect 13 0 3 1;
#X connect 14 0 8 0;
#X connect 15 0 3 1;
#X restore 197 150 pd map;
#X obj 433 513 dac~;
#N canvas 643 124 1152 719 chestDetector 0;
#X obj 43 22 inlet nearest chest position XYZ;
#X obj 261 24 camera-vectors;
#X obj 103 65 vec3/sub;
#X obj 85 95 vec3/len;
#X obj 85 170 clip 0 1;
#X obj 90 216 lerp 1000 200;
#X obj 81 243 osc~;
#X obj 203 313 outlet~ audio;
#X obj 152 112 hsl 136 16 0 127 0 0 empty empty empty -2 -8 0 10 #fcfcfc #000000 #000000 0 1;
#X floatatom 171 139 5 0 0 0 - - - 0;
#X floatatom 166 244 5 0 0 0 - - - 0;
#X obj 330 110 vec3/dot;
#X obj 199 283 *~;
#X obj 334 176 hsl 136 16 0 1 0 0 empty empty empty -2 -8 0 10 #fcfcfc #000000 #000000 0 1;
#X obj 125 193 pow;
#X obj 156 168 hsl 136 16 1 2 0 0 empty empty empty -2 -8 0 10 #fcfcfc #000000 #000000 0 1;
#X obj 366 224 ad~;
#X obj 388 256 *~;
#X obj 358 289 osc~;
#X obj 76 146 norm 1 50;
#X obj 73 118 moses 50;
#X connect 0 0 2 0;
#X connect 1 0 2 1;
#X connect 1 1 11 1;
#X connect 2 0 3 0;
#X connect 2 0 11 0;
#X connect 3 0 20 0;
#X connect 4 0 14 0;
#X connect 5 0 6 0;
#X connect 5 0 10 0;
#X connect 6 0 12 0;
#X connect 8 0 9 0;
#X connect 8 0 19 0;
#X connect 11 0 12 1;
#X connect 12 0 7 0;
#X connect 13 0 12 1;
#X connect 13 0 17 1;
#X connect 14 0 5 0;
#X connect 15 0 14 1;
#X connect 16 0 17 0;
#X connect 17 0 18 0;
#X connect 19 0 4 0;
#X connect 20 0 19 0;
#X restore 357 294 pd chestDetector;
#X obj 256 213 *~ 5;
#N canvas 409 143 1311 792 ambient 1;
#X obj 46 16 inlet forest;
#X obj 145 16 inlet water;
#X obj 240 14 inlet altitude;
#X obj 166 360 outlet~ audio;
#X msg 21 123 loop 0 189 1;
#X obj 46 180 sampler1~ samples/Ambiance-Music-by-Aleksey-Chistilin-from-Pixabay.wav 44100;
#X obj 101 62 >= 0.5;
#X obj 173 54 >= 0.5;
#X obj 280 56 loadbang;
#X obj 149 76 tgl 16 0 empty empty empty 0 -8 0 10 #fcfcfc #000000 #000000 0 1;
#X obj 272 291 oscilloscope;
#X obj 102 236 *~ 1;
#X obj 242 236 *~ 1;
#X obj 24 85 loadbang;
#X obj 219 76 tgl 16 0 empty empty empty 0 -8 0 10 #fcfcfc #000000 #000000 0 1;
#X msg 275 104 loop 0 16 1;
#X obj 279 137 sampler1~ samples/Ambiance-Music-by-Julius-H-from-Pixabay.wav 44100;
#X connect 0 0 6 0;
#X connect 1 0 7 0;
#X connect 4 0 5 0;
#X connect 5 0 11 0;
#X connect 6 0 11 1;
#X connect 7 0 12 1;
#X connect 8 0 15 0;
#X connect 9 0 11 1;
#X connect 11 0 3 0;
#X connect 11 0 10 0;
#X connect 12 0 3 0;
#X connect 12 0 10 0;
#X connect 13 0 4 0;
#X connect 14 0 12 1;
#X connect 15 0 16 0;
#X connect 16 0 12 0;
#X restore 824 198 pd ambient sound;
#X obj 451 449 *~ 1;
#N canvas 54 46 1789 888 player 0;
#X obj 51 31 inlet camAltitude;
#X obj 172 33 inlet fAltitude;
#X obj 285 33 inlet walking;
#X obj 396 35 inlet swimming;
#X obj 513 36 inlet diving;
#X obj 619 34 inlet Wspeed;
#X obj 712 35 inlet Sspeed;
#X obj 807 36 inlet Dspeed;
#X obj 108 389 outlet~ audio;
#X obj 241 364 dac~;
#X obj 543 156 <= 0 && >= -2;
#N canvas 177 81 1613 746 waterWalking 1;
#X obj 140 112 &&;
#X obj 128 287 sampler1~ samples/waterWalking-Pixabay.wav 44100;
#X obj 128 320 *~ 1;
#X floatatom 140 168 5 0 0 0 - - - 0;
#X obj 67 111 tgl 16 0 empty empty empty 0 -8 0 10 #fcfcfc #000000 #000000 0 1;
#X floatatom 534 158 5 0 0 0 - - - 0;
#X obj 508 85 norm 0 8;
#X obj 222 158 vmetro;
#X obj 190 195 bng 16 250 50 0 empty empty empty 0 -8 0 10 #fcfcfc #000000 #000000;
#X obj 228 226 * 1;
#X floatatom 245 254 5 0 0 0 - - - 0;
#X msg 157 258 play 0 2 \$1;
#X obj 318 184 f 0;
#X obj 347 183 + 1;
#X obj 318 206 % 2;
#X obj 318 232 select 0 1;
#X obj 504 109 select 0;
#X obj 563 139 lerp 0.7 2;
#X floatatom 580 113 5 0 0 0 - - - 0;
#X obj 141 144 &&;
#X obj 349 115 >= 0.1;
#X text 301 163 Only detect up bang;
#X text 182 89 If we are walking in water (Speed not zero);
#X text 495 182 Change playing speed according to walking speed;
#X obj 216 38 inlet walking;
#X obj 505 34 inlet Wspeed;
#X obj 100 348 outlet~ audio;
#X floatatom 398 230 5 0 0 0 - - - 0;
#X obj 91 73 <= 2.2 && >= 0.2;
#X obj 91 37 inlet camAltitude;
#X obj 54 89 tgl 16 0 empty empty empty 0 -8 0 10 #fcfcfc #000000 #000000 0 1;
#X connect 0 0 19 0;
#X connect 1 0 2 0;
#X connect 2 0 26 0;
#X connect 3 0 2 1;
#X connect 3 0 7 0;
#X connect 4 0 3 0;
#X connect 5 0 9 1;
#X connect 6 0 16 0;
#X connect 6 0 20 0;
#X connect 7 0 8 0;
#X connect 7 0 12 0;
#X connect 9 0 11 0;
#X connect 9 0 10 0;
#X connect 11 0 1 0;
#X connect 12 0 13 0;
#X connect 12 0 14 0;
#X connect 13 0 12 1;
#X connect 14 0 15 0;
#X connect 14 0 27 0;
#X connect 15 1 9 0;
#X connect 16 1 17 0;
#X connect 16 1 18 0;
#X connect 17 0 5 0;
#X connect 19 0 3 0;
#X connect 20 0 19 1;
#X connect 24 0 0 1;
#X connect 25 0 6 0;
#X connect 28 0 0 0;
#X connect 28 0 30 0;
#X connect 29 0 28 0;
#X restore 192 137 pd waterWalking;
#X connect 0 0 11 0;
#X connect 2 0 11 1;
#X connect 5 0 11 2;
#X connect 11 0 9 1;
#X connect 11 0 9 0;
#X connect 11 0 8 0;
#X restore 1209 367 pd player sound;
#X obj 1174 217 route walking;
#X msg 1179 246 1;
#X msg 1224 246 0;
#X msg 1291 271 1;
#X msg 1336 271 0;
#X msg 1404 275 1;
#X msg 1449 275 0;
#X obj 1286 242 route swimming;
#X obj 1399 246 route diving;
#X obj 1201 284 change;
#X obj 1282 303 change;
#X obj 1389 315 change;
#X obj 521 239 unpack f f f;
#X msg 1112 73 -1219 0 2306;
#X connect 1 0 2 0;
#X connect 2 0 51 0;
#X connect 3 0 33 0;
#X connect 4 0 5 0;
#X connect 4 1 6 0;
#X connect 4 2 6 1;
#X connect 4 3 6 2;
#X connect 4 4 7 0;
#X connect 6 0 21 0;
#X connect 6 0 53 0;
#X connect 8 0 14 0;
#X connect 9 0 13 0;
#X connect 10 0 32 0;
#X connect 11 0 12 0;
#X connect 12 0 55 2;
#X connect 12 0 57 1;
#X connect 13 0 55 1;
#X connect 14 0 55 0;
#X connect 15 0 57 5;
#X connect 16 0 57 6;
#X connect 17 0 57 7;
#X connect 22 0 15 0;
#X connect 22 0 18 0;
#X connect 22 1 16 0;
#X connect 22 1 19 0;
#X connect 22 2 17 0;
#X connect 22 2 20 0;
#X connect 28 0 29 0;
#X connect 28 1 30 0;
#X connect 28 2 31 0;
#X connect 29 0 70 0;
#X connect 32 0 22 0;
#X connect 32 0 58 0;
#X connect 32 0 65 0;
#X connect 32 0 66 0;
#X connect 33 0 4 0;
#X connect 36 0 42 0;
#X connect 37 0 49 0;
#X connect 38 0 39 0;
#X connect 41 0 37 0;
#X connect 42 0 41 0;
#X connect 43 0 38 0;
#X connect 43 1 38 1;
#X connect 43 2 38 2;
#X connect 43 3 40 0;
#X connect 45 0 71 0;
#X connect 49 0 43 0;
#X connect 51 0 54 0;
#X connect 54 0 56 0;
#X connect 56 0 52 0;
#X connect 56 0 52 1;
#X connect 58 0 59 0;
#X connect 58 1 60 0;
#X connect 59 0 67 0;
#X connect 60 0 67 0;
#X connect 61 0 68 0;
#X connect 62 0 68 0;
#X connect 63 0 69 0;
#X connect 64 0 69 0;
#X connect 65 0 61 0;
#X connect 65 1 62 0;
#X connect 66 0 63 0;
#X connect 66 1 64 0;
#X connect 67 0 57 2;
#X connect 68 0 57 3;
#X connect 69 0 57 4;
#X connect 70 1 57 0;
#X connect 71 0 47 0;
