#N canvas 2502 -275 1801 760 10;
#N canvas 475 437 395 449 network 0;
#X msg 25 113 listen 3000;
#X msg 58 150 listen 0;
#X obj 25 86 loadbang;
#X text 144 151 <- Stop listeneing;
#X text 142 113 <- Start listeneing on port 3000;
#X text 24 17 This is the default gdx-pd remote configuration.;
#X text 24 34 All server/client are automatically started;
#X obj 25 226 oscparse;
#X obj 25 253 list trim;
#X obj 25 303 list split 1;
#X obj 25 371 list;
#X obj 25 335 t b s;
#X obj 32 395 send;
#X obj 25 200 netreceive -b -u;
#X obj 25 277 route send;
#X connect 0 0 13 0;
#X connect 1 0 13 0;
#X connect 2 0 0 0;
#X connect 7 0 8 0;
#X connect 8 0 14 0;
#X connect 9 0 11 0;
#X connect 9 1 10 1;
#X connect 10 0 12 0;
#X connect 11 0 10 0;
#X connect 11 1 12 1;
#X connect 13 0 7 0;
#X connect 14 0 9 0;
#X restore 24 61 pd network;
#X obj 206 76 r map;
#X obj 192 123 tgl 15 0 empty empty empty 17 7 0 10 #fcfcfc #000000 #000000 0 1;
#X obj 347 105 r chest;
#X obj 347 168 unpack f f f f f;
#X floatatom 331 202 5 0 0 0 - - - 0;
#X obj 374 202 pack f f f;
#X floatatom 456 204 5 0 0 0 - - - 0;
#X obj 796 80 r forest;
#X obj 864 80 r water;
#X obj 1298 92 r move;
#X obj 947 82 r altitude;
#X floatatom 947 104 5 0 0 0 - - - 0;
#X floatatom 864 102 5 0 0 0 - - - 0;
#X floatatom 796 102 5 0 0 0 - - - 0;
#X floatatom 1298 188 5 0 0 0 - - - 0;
#X floatatom 1364 187 5 0 0 0 - - - 0;
#X floatatom 1431 186 5 0 0 0 - - - 0;
#X obj 1271 195 bng 15 250 50 0 empty empty empty 17 7 0 10 #fcfcfc #000000 #000000;
#X obj 1344 188 bng 15 250 50 0 empty empty empty 17 7 0 10 #fcfcfc #000000 #000000;
#X obj 1413 188 bng 15 250 50 0 empty empty empty 17 7 0 10 #fcfcfc #000000 #000000;
#X obj 374 224 vec3;
#X obj 1298 136 route walking swimming diving;
#X text 202 22 Map toggle : 0 off 1 on, f 12;
#X text 12 19 network listener do not remove, f 16;
#X text 540 17 camera : position (x \, y \, z) \, direction (x \, y \, z) \, head-up (x \, y \, z), f 20;
#X text 933 14 ground altitude at camera position relative to water level (in meters), f 18;
#X text 1303 22 player status (walking \, swimming or diving) and velocity (in meters per seconds), f 25;
#X obj 561 107 camera-vectors;
#X obj 520 153 vec3;
#X obj 600 153 vec3;
#X obj 680 153 vec3;
#X obj 1298 114 list trim;
#X obj 347 136 route 0 1 2;
#X obj 39 132 help;
#X text 351 19 3 nearset chest : index (0 \, 1 \, 2) \, seed (0 to 1) \, position (x \, y \, z) \, occlusion (0 to 1), f 19;
#X obj 1573 104 r animal;
#X obj 1573 171 route 0 1 2;
#X obj 1573 246 pack f f f;
#X obj 1573 272 vec3;
#X floatatom 1668 247 5 0 0 0 - - - 0;
#X obj 1573 148 route LAND WATER AIR;
#X obj 1573 126 list trim;
#X obj 1573 219 unpack f f f f;
#X text 13 108 Library help;
#X obj 1112 41 loadbang;
#X text 1109 15 House static position;
#X obj 1090 109 vec3;
#X text 815 16 surrounding forest and water sensor (0 to 1), f 13;
#X obj 1573 194 route STROLL FLEE;
#X text 1551 15 nearset animals (max 3 per type) : type (LAND WATER AIR) \, index (0 \, 1 \, 2) \, state (STROLL FLEE) \, position (x \, y \, z) \, occlusion (0 or 1), f 28;
#X obj 737 715 dac~;
#N canvas 546 126 1311 792 ambient 0;
#X obj 46 16 inlet forest;
#X obj 145 16 inlet water;
#X obj 244 15 inlet altitude;
#X obj 166 360 outlet~ audio;
#X msg 21 123 loop 0 189 1;
#X obj 46 180 sampler1~ samples/Ambiance-Music-by-Aleksey-Chistilin-from-Pixabay.wav 44100;
#X obj 101 62 >= 0.5;
#X obj 173 54 >= 0.5;
#X obj 280 56 loadbang;
#X obj 149 76 tgl 16 0 empty empty empty 0 -8 0 10 #fcfcfc #000000 #000000 0 1;
#X obj 82 242 *~ 1;
#X obj 201 245 *~ 1;
#X obj 24 85 loadbang;
#X obj 219 76 tgl 16 0 empty empty empty 0 -8 0 10 #fcfcfc #000000 #000000 0 1;
#X msg 275 104 loop 0 16 1;
#X obj 279 137 sampler1~ samples/Ambiance-Music-by-Julius-H-from-Pixabay.wav 44100;
#X obj 127 309 *~ 0.6;
#X text 250 238 both music are played but one of them has sound depending of the environment;
#X connect 0 0 6 0;
#X connect 1 0 7 0;
#X connect 4 0 5 0;
#X connect 5 0 10 0;
#X connect 6 0 10 1;
#X connect 7 0 11 1;
#X connect 8 0 14 0;
#X connect 9 0 10 1;
#X connect 10 0 16 0;
#X connect 11 0 3 0;
#X connect 12 0 4 0;
#X connect 13 0 11 1;
#X connect 14 0 15 0;
#X connect 15 0 11 0;
#X connect 16 0 3 0;
#X restore 865 202 pd ambient sound;
#X obj 563 570 *~ 1;
#N canvas 2603 -428 1775 888 player 0;
#X obj 51 31 inlet camAltitude;
#X obj 172 33 inlet fAltitude;
#X obj 285 33 inlet walking;
#X obj 396 35 inlet swimming;
#X obj 513 36 inlet diving;
#X obj 619 34 inlet Wspeed;
#X obj 712 35 inlet Sspeed;
#X obj 807 36 inlet Dspeed;
#X obj 293 391 outlet~ audio;
#N canvas 166 105 1613 746 waterWalking 0;
#X obj 140 112 &&;
#X obj 131 372 sampler1~ samples/waterWalking-Pixabay.wav 44100;
#X obj 130 401 *~ 1;
#X floatatom 140 168 5 0 0 0 - - - 0;
#X obj 67 111 tgl 16 0 empty empty empty 0 -8 0 10 #fcfcfc #000000 #000000 0 1;
#X floatatom 534 158 5 0 0 0 - - - 0;
#X obj 508 85 norm 0 8;
#X obj 222 158 vmetro;
#X obj 190 195 bng 16 250 50 0 empty empty empty 0 -8 0 10 #fcfcfc #000000 #000000;
#X obj 302 308 * 1;
#X floatatom 248 339 5 0 0 0 - - - 0;
#X msg 160 343 play 0 2 \$1;
#X obj 318 184 f 0;
#X obj 347 183 + 1;
#X obj 318 206 % 2;
#X obj 318 232 select 0 1;
#X obj 504 109 select 0;
#X obj 563 139 lerp 0.7 2;
#X floatatom 580 113 5 0 0 0 - - - 0;
#X obj 141 144 &&;
#X obj 349 115 >= 0.1;
#X text 301 163 Only detect up bang;
#X text 182 89 If we are walking in water (Speed not zero);
#X text 495 182 Change playing speed according to walking speed;
#X obj 216 38 inlet walking;
#X obj 505 34 inlet Wspeed;
#X obj 112 457 outlet~ audio;
#X floatatom 381 205 5 0 0 0 - - - 0;
#X obj 91 73 <= 2.2 && >= 0.2;
#X obj 91 37 inlet camAltitude;
#X obj 54 89 tgl 16 0 empty empty empty 0 -8 0 10 #fcfcfc #000000 #000000 0 1;
#X floatatom 359 338 5 0 0 0 - - - 0;
#X obj 317 255 tgl 16 0 empty empty empty 0 -8 0 10 #fcfcfc #000000 #000000 0 1;
#X floatatom 317 276 5 0 0 0 - - - 0;
#X obj 282 275 f 1;
#X obj 121 432 *~ 5;
#X connect 0 0 19 0;
#X connect 1 0 2 0;
#X connect 2 0 35 0;
#X connect 3 0 2 1;
#X connect 3 0 7 0;
#X connect 4 0 3 0;
#X connect 5 0 9 1;
#X connect 6 0 16 0;
#X connect 6 0 20 0;
#X connect 7 0 8 0;
#X connect 7 0 12 0;
#X connect 9 0 11 0;
#X connect 9 0 10 0;
#X connect 9 0 31 0;
#X connect 11 0 1 0;
#X connect 12 0 13 0;
#X connect 12 0 14 0;
#X connect 13 0 12 1;
#X connect 14 0 27 0;
#X connect 15 0 34 0;
#X connect 15 1 32 0;
#X connect 16 1 17 0;
#X connect 16 1 18 0;
#X connect 17 0 5 0;
#X connect 19 0 3 0;
#X connect 20 0 19 1;
#X connect 24 0 0 1;
#X connect 25 0 6 0;
#X connect 27 0 15 0;
#X connect 28 0 0 0;
#X connect 28 0 30 0;
#X connect 29 0 28 0;
#X connect 32 0 33 0;
#X connect 33 0 9 0;
#X connect 34 0 9 0;
#X connect 35 0 26 0;
#X restore 192 137 pd waterWalking;
#N canvas 2827 -182 1121 719 walking 0;
#X obj 186 38 inlet camAltitude;
#X obj 311 38 inlet walking;
#X obj 414 40 inlet Wspeed;
#X obj 207 70 > 2.2;
#X obj 245 150 &&;
#X obj 219 196 tgl 16 0 empty empty empty 0 -8 0 10 #fcfcfc #000000 #000000 0 1;
#X floatatom 467 92 5 0 0 0 - - - 0;
#X obj 414 64 select 0;
#X obj 306 188 vmetro;
#X obj 287 251 random 1000;
#X msg 287 370 play 2.122 2.5 \$1;
#X obj 287 439 sampler1~ samples/foots-mono.wav 48000;
#X text 435 118 generate bangs based on speed;
#X obj 287 274 / 1000;
#X obj 287 296 lerp 0.8 1.2;
#X text 403 274 generate a random pitch;
#X text 422 370 play a single footstep with varying pitch;
#X obj 383 123 / 2;
#X obj 248 333 * 1;
#X obj 283 509 outlet~ audio;
#X text 66 85 Only when walking on ground \, not water;
#X connect 0 0 3 0;
#X connect 1 0 4 1;
#X connect 2 0 7 0;
#X connect 3 0 4 0;
#X connect 4 0 5 0;
#X connect 5 0 18 1;
#X connect 7 1 6 0;
#X connect 7 1 17 0;
#X connect 8 0 9 0;
#X connect 9 0 13 0;
#X connect 10 0 11 0;
#X connect 11 0 19 0;
#X connect 13 0 14 0;
#X connect 14 0 18 0;
#X connect 17 0 8 0;
#X connect 18 0 10 0;
#X restore 607 144 pd walking;
#N canvas 3247 -322 1221 844 enterDiving 0;
#X obj 31 55 change;
#X obj 30 83 bng 16 250 50 0 empty empty empty 0 -8 0 10 #fcfcfc #000000 #000000;
#X obj 32 137 sampler1~ samples/GoingUnderwater-Pixabay.wav 48000;
#X obj 65 185 *~ 1;
#X floatatom 96 98 5 0 0 0 - - - 0;
#X obj 93 64 tgl 16 0 empty empty empty 0 -8 0 10 #fcfcfc #000000 #000000 0 1;
#X obj 29 21 inlet diving;
#X msg 22 112 play 0 2 1;
#X obj 51 256 outlet~ audio;
#X obj 71 220 *~ 3;
#X text 163 48 play sound when entering diving state stop the sound if no longer in diving state;
#X connect 0 0 1 0;
#X connect 1 0 7 0;
#X connect 2 0 3 0;
#X connect 3 0 9 0;
#X connect 4 0 3 1;
#X connect 5 0 4 0;
#X connect 6 0 0 0;
#X connect 6 0 5 0;
#X connect 7 0 2 0;
#X connect 9 0 8 0;
#X restore 370 151 pd enterDiving;
#X connect 0 0 9 0;
#X connect 0 0 10 0;
#X connect 2 0 9 1;
#X connect 2 0 10 1;
#X connect 4 0 11 0;
#X connect 5 0 9 2;
#X connect 5 0 10 2;
#X connect 9 0 8 0;
#X connect 10 0 8 0;
#X connect 11 0 8 0;
#X restore 1209 367 pd player sound;
#X obj 1174 217 route walking;
#X msg 1179 246 1;
#X msg 1224 246 0;
#X msg 1291 271 1;
#X msg 1336 271 0;
#X msg 1404 275 1;
#X msg 1449 275 0;
#X obj 1286 242 route swimming;
#X obj 1399 246 route diving;
#X obj 1201 284 change;
#X obj 1282 303 change;
#X obj 1389 315 change;
#X obj 521 239 unpack f f f;
#X msg 1112 73 -1219 0 2306;
#N canvas 3531 -397 1107 737 animalLand 0;
#X obj 161 14 inlet animals;
#X obj 161 47 route 0 1 2;
#X obj 28 93 route STROLL FLEE;
#X obj 153 96 route STROLL FLEE;
#X obj 274 97 route STROLL FLEE;
#X obj 62 149 unpack f f f f;
#X obj 164 150 unpack f f f f;
#X obj 274 150 unpack f f f f;
#X obj 55 237 special;
#X obj 85 204 pack f f f;
#X obj 179 239 special;
#X obj 209 206 pack f f f;
#X obj 305 241 special;
#X obj 335 208 pack f f f;
#X obj 32 203 chien;
#X obj 156 205 chien;
#X obj 282 207 chien;
#X obj 107 297 outlet~ L;
#X obj 251 293 outlet~ R;
#X connect 0 0 1 0;
#X connect 1 0 2 0;
#X connect 1 1 3 0;
#X connect 1 2 4 0;
#X connect 2 0 5 0;
#X connect 2 0 14 0;
#X connect 2 1 5 0;
#X connect 2 1 14 1;
#X connect 3 0 6 0;
#X connect 3 0 15 0;
#X connect 3 1 6 0;
#X connect 3 1 15 1;
#X connect 4 0 7 0;
#X connect 4 0 16 0;
#X connect 4 1 7 0;
#X connect 4 1 16 1;
#X connect 5 0 9 0;
#X connect 5 1 9 1;
#X connect 5 2 9 2;
#X connect 6 0 11 0;
#X connect 6 1 11 1;
#X connect 6 2 11 2;
#X connect 7 0 13 0;
#X connect 7 1 13 1;
#X connect 7 2 13 2;
#X connect 8 0 17 0;
#X connect 8 1 18 0;
#X connect 9 0 8 1;
#X connect 10 0 17 0;
#X connect 10 1 18 0;
#X connect 11 0 10 1;
#X connect 12 0 17 0;
#X connect 12 1 18 0;
#X connect 13 0 12 1;
#X connect 14 0 8 0;
#X connect 15 0 10 0;
#X connect 16 0 12 0;
#X restore 1478 365 pd animalLand;
#N canvas 3098 -224 1051 703 animalWater 0;
#X obj 161 14 inlet animals;
#X obj 161 47 route 0 1 2;
#X obj 28 93 route STROLL FLEE;
#X obj 153 96 route STROLL FLEE;
#X obj 274 97 route STROLL FLEE;
#X obj 62 149 unpack f f f f;
#X obj 164 150 unpack f f f f;
#X obj 274 150 unpack f f f f;
#X obj 32 203 poisson;
#X obj 55 237 special;
#X obj 85 204 pack f f f;
#X obj 156 205 poisson;
#X obj 179 239 special;
#X obj 209 206 pack f f f;
#X obj 282 207 poisson;
#X obj 305 241 special;
#X obj 335 208 pack f f f;
#X obj 107 290 outlet~ L;
#X obj 251 286 outlet~ R;
#X connect 0 0 1 0;
#X connect 1 0 2 0;
#X connect 1 1 3 0;
#X connect 1 2 4 0;
#X connect 2 0 5 0;
#X connect 2 1 5 0;
#X connect 3 0 6 0;
#X connect 3 1 6 0;
#X connect 4 0 7 0;
#X connect 4 1 7 0;
#X connect 5 0 10 0;
#X connect 5 1 8 0;
#X connect 5 1 10 1;
#X connect 5 2 10 2;
#X connect 6 0 13 0;
#X connect 6 1 11 0;
#X connect 6 1 13 1;
#X connect 6 2 13 2;
#X connect 7 0 16 0;
#X connect 7 1 14 0;
#X connect 7 1 16 1;
#X connect 7 2 16 2;
#X connect 8 0 9 0;
#X connect 9 0 17 0;
#X connect 9 1 18 0;
#X connect 10 0 9 1;
#X connect 11 0 12 0;
#X connect 12 0 17 0;
#X connect 12 1 18 0;
#X connect 13 0 12 1;
#X connect 14 0 15 0;
#X connect 15 0 17 0;
#X connect 15 1 18 0;
#X connect 16 0 15 1;
#X restore 1571 364 pd animalWater;
#N canvas 2497 -350 952 610 animalAir 0;
#X obj 161 14 inlet animals;
#X obj 161 47 route 0 1 2;
#X obj 28 93 route STROLL FLEE;
#X obj 153 96 route STROLL FLEE;
#X obj 274 97 route STROLL FLEE;
#X obj 62 149 unpack f f f f;
#X obj 164 150 unpack f f f f;
#X obj 274 150 unpack f f f f;
#X obj 55 237 special;
#X obj 85 204 pack f f f;
#X obj 179 239 special;
#X obj 209 206 pack f f f;
#X obj 305 241 special;
#X obj 335 208 pack f f f;
#X obj 32 203 oiseau;
#X obj 156 205 oiseau;
#X obj 282 207 oiseau;
#X obj 107 305 outlet~ L;
#X obj 253 312 outlet~ R;
#X connect 0 0 1 0;
#X connect 1 0 2 0;
#X connect 1 1 3 0;
#X connect 1 2 4 0;
#X connect 2 0 5 0;
#X connect 2 1 5 0;
#X connect 3 0 6 0;
#X connect 3 1 6 0;
#X connect 4 0 7 0;
#X connect 4 1 7 0;
#X connect 5 0 9 0;
#X connect 5 1 9 1;
#X connect 5 2 9 2;
#X connect 6 0 11 0;
#X connect 6 1 11 1;
#X connect 6 2 11 2;
#X connect 7 0 13 0;
#X connect 7 1 13 1;
#X connect 7 2 13 2;
#X connect 8 0 17 0;
#X connect 8 1 18 0;
#X connect 9 0 8 1;
#X connect 10 0 17 0;
#X connect 10 1 18 0;
#X connect 11 0 10 1;
#X connect 12 0 17 0;
#X connect 12 1 18 0;
#X connect 13 0 12 1;
#X connect 14 0 8 0;
#X connect 15 0 10 0;
#X connect 16 0 12 0;
#X restore 1669 364 pd animalAir;
#X obj 819 458 *~ 0.7;
#N canvas 2735 -143 1210 684 chest 0;
#X obj 39 16 inlet nearest chest position XYZ;
#X obj 274 15 camera-vectors;
#X obj 92 44 vec3/sub;
#X obj 92 69 vec3/len;
#X obj 138 95 norm 1 100;
#X obj 138 121 clip 0 1;
#X obj 90 291 outlet~ audio;
#X obj 267 83 vec3/dot;
#X obj 138 168 osc~ 700;
#X obj 138 146 lerp 1000 200;
#X obj 249 53 vec3/nor;
#X obj 156 196 *~;
#X obj 267 104 norm -1 1;
#X obj 12 136 inlet mapOpen;
#X obj 12 158 tgl 16 0 empty empty empty 0 -8 0 10 #fcfcfc #000000 #000000 0 1;
#X floatatom 12 179 5 0 0 0 - - - 0;
#X obj 114 246 *~;
#X connect 0 0 2 0;
#X connect 1 0 2 1;
#X connect 1 1 7 1;
#X connect 2 0 3 0;
#X connect 2 0 10 0;
#X connect 3 0 4 0;
#X connect 4 0 5 0;
#X connect 5 0 9 0;
#X connect 7 0 12 0;
#X connect 8 0 11 0;
#X connect 9 0 8 0;
#X connect 10 0 7 0;
#X connect 11 0 16 0;
#X connect 12 0 11 1;
#X connect 13 0 14 0;
#X connect 14 0 15 0;
#X connect 15 0 16 1;
#X connect 16 0 6 0;
#X restore 339 312 pd chest detector;
#N canvas 890 423 915 631 music 0;
#X msg 16 29 loop 0 41 1;
#X obj 16 51 sampler1~ samples/cathedral-organ-Pixabay.wav 44100;
#X obj 13 145 outlet~ audio;
#X msg 17 5 loadbang;
#X obj 27 99 *~ 0.05;
#X text 155 19 always play music from house;
#X connect 0 0 1 0;
#X connect 1 0 4 0;
#X connect 3 0 0 0;
#X connect 4 0 2 0;
#X restore 1089 197 pd music maison;
#X obj 1013 267 special;
#X obj 1422 493 *~ 0.7;
#X obj 1484 495 *~ 0.7;
#X obj 701 655 *~ 1;
#X obj 775 659 *~ 1;
#N canvas 929 423 723 350 minimap 0;
#X obj 40 25 inlet map;
#X obj 97 70 select 0 1;
#X obj 138 19 tgl 15 0 empty empty empty 17 7 0 10 #fcfcfc #000000 #000000 0 1;
#X obj 119 284 outlet~ audio;
#X obj 120 218 osc~, f 5;
#X obj 30 94 ad~ 0 300;
#X obj 224 92 ad~ 300 0;
#X obj 102 166 *~ 1000;
#X obj 261 179 *~ 1000;
#X obj 121 259 *~ 0.2;
#X connect 0 0 1 0;
#X connect 1 0 5 0;
#X connect 1 1 6 0;
#X connect 2 0 1 0;
#X connect 4 0 9 0;
#X connect 5 0 7 0;
#X connect 6 0 8 0;
#X connect 7 0 4 0;
#X connect 8 0 4 0;
#X connect 9 0 3 0;
#X restore 185 253 pd minimap;
#X text 917 265 spatialisation;
#X connect 1 0 2 0;
#X connect 1 0 73 0;
#X connect 2 0 80 0;
#X connect 3 0 33 0;
#X connect 4 0 5 0;
#X connect 4 1 6 0;
#X connect 4 2 6 1;
#X connect 4 3 6 2;
#X connect 4 4 7 0;
#X connect 6 0 21 0;
#X connect 8 0 14 0;
#X connect 9 0 13 0;
#X connect 10 0 32 0;
#X connect 11 0 12 0;
#X connect 12 0 52 2;
#X connect 12 0 54 1;
#X connect 13 0 52 1;
#X connect 14 0 52 0;
#X connect 15 0 54 5;
#X connect 16 0 54 6;
#X connect 17 0 54 7;
#X connect 21 0 73 1;
#X connect 22 0 15 0;
#X connect 22 0 18 0;
#X connect 22 1 16 0;
#X connect 22 1 19 0;
#X connect 22 2 17 0;
#X connect 22 2 20 0;
#X connect 28 0 29 0;
#X connect 28 1 30 0;
#X connect 28 2 31 0;
#X connect 29 0 67 0;
#X connect 32 0 22 0;
#X connect 32 0 55 0;
#X connect 32 0 62 0;
#X connect 32 0 63 0;
#X connect 33 0 4 0;
#X connect 36 0 42 0;
#X connect 37 0 49 0;
#X connect 38 0 39 0;
#X connect 41 0 37 0;
#X connect 41 0 69 0;
#X connect 41 1 70 0;
#X connect 41 2 71 0;
#X connect 42 0 41 0;
#X connect 43 0 38 0;
#X connect 43 1 38 1;
#X connect 43 2 38 2;
#X connect 43 3 40 0;
#X connect 45 0 68 0;
#X connect 47 0 75 1;
#X connect 49 0 43 0;
#X connect 52 0 53 0;
#X connect 53 0 78 0;
#X connect 53 0 79 0;
#X connect 54 0 72 0;
#X connect 55 0 56 0;
#X connect 55 1 57 0;
#X connect 56 0 64 0;
#X connect 57 0 64 0;
#X connect 58 0 65 0;
#X connect 59 0 65 0;
#X connect 60 0 66 0;
#X connect 61 0 66 0;
#X connect 62 0 58 0;
#X connect 62 1 59 0;
#X connect 63 0 60 0;
#X connect 63 1 61 0;
#X connect 64 0 54 2;
#X connect 65 0 54 3;
#X connect 66 0 54 4;
#X connect 67 1 54 0;
#X connect 68 0 47 0;
#X connect 69 0 76 0;
#X connect 69 1 77 0;
#X connect 70 0 76 0;
#X connect 70 1 77 0;
#X connect 71 0 76 0;
#X connect 71 1 77 0;
#X connect 72 0 53 0;
#X connect 73 0 53 0;
#X connect 74 0 75 0;
#X connect 75 0 78 0;
#X connect 75 1 79 0;
#X connect 76 0 78 0;
#X connect 77 0 79 0;
#X connect 78 0 51 0;
#X connect 79 0 51 1;
#X connect 80 0 53 0;
