#N canvas 2851 -475 1267 822 12;
#X obj 55 68 > 0;
#X obj 50 111 tgl 16 0 empty empty empty 0 -8 0 10 #fcfcfc #000000 #000000 0 1;
#X msg 45 238 play 0 1 1;
#X obj 110 108 change;
#X obj 50 36 inlet y;
#X obj 75 355 outlet~ audio;
#X obj 21 273 sampler1~ samples/Animals/Fish-Pixabay.wav 48000;
#X msg 265 235 play 0 1 1;
#X obj 144 163 random 2;
#X obj 164 198 select 0 1;
#X obj 110 132 bng 19 250 50 0 empty empty empty 0 -10 0 12 #fcfcfc #000000 #000000;
#X obj 197 301 sampler1~ samples/Animals/Fish2-Pixabay.wav 48000;
#X text 247 171 Choix aléatoire entre les 2 sons;
#X text 108 61 Son quand le poisson sort de l'eau;
#X connect 0 0 1 0;
#X connect 0 0 3 0;
#X connect 2 0 6 0;
#X connect 3 0 10 0;
#X connect 4 0 0 0;
#X connect 6 0 5 0;
#X connect 7 0 11 0;
#X connect 8 0 9 0;
#X connect 9 0 2 0;
#X connect 9 1 7 0;
#X connect 10 0 8 0;
#X connect 11 0 5 0;
