#N canvas 224 224 450 276 12;
#X obj 55 68 > 0;
#X obj 56 99 tgl 16 0 empty empty empty 0 -8 0 10 #fcfcfc #000000 #000000 0 1;
#X obj 56 155 sampler1~ samples/dog_barking-6296-Pixabay1.wav 24000;
#X msg 76 120 play 0 1 1;
#X obj 85 92 change;
#X obj 50 36 inlet y;
#X obj 57 225 outlet~ audio;
#X connect 0 0 1 0;
#X connect 0 0 4 0;
#X connect 2 0 6 0;
#X connect 3 0 2 0;
#X connect 4 0 3 0;
#X connect 5 0 0 0;
