#N canvas 1358 506 450 300 12;
#X obj 38 29 inlet~ audio;
#X obj 156 28 inlet position;
#N canvas 623 91 450 300 distance 0;
#X obj 43 25 inlet~ audio;
#X obj 288 26 inlet position;
#X obj 44 265 outlet~;
#X obj 161 27 camera-vectors;
#X obj 161 107 vec3/len;
#X obj 161 77 vec3/sub;
#X floatatom 161 190 5 0 0 0 - - -;
#X obj 161 135 norm 1 100;
#X obj 43 213 *~ 1;
#X obj 161 159 lerp 1 0.01;
#X obj 43 237 *~ 0.7;
#X connect 0 0 8 0;
#X connect 1 0 5 1;
#X connect 3 0 5 0;
#X connect 4 0 7 0;
#X connect 5 0 4 0;
#X connect 7 0 9 0;
#X connect 8 0 10 0;
#X connect 9 0 6 0;
#X connect 9 0 8 1;
#X connect 10 0 2 0;
#X restore 51 92 pd distance;
#N canvas 876 195 926 405 gauch 0;
#X obj 262 23 camera-vectors;
#X obj 147 81 inlet position;
#X obj 57 287 delread4~ \$0-delay;
#X obj 337 55 vec3/crs;
#X obj 257 54 vec3/crs;
#X obj 57 154 vec3/len;
#X obj 273 156 vec3/len;
#X obj 57 133 vec3/sub;
#X obj 273 135 vec3/sub;
#X obj 257 96 vec3/add;
#X obj 337 95 vec3/add;
#X obj 257 75 * 0.1075;
#X obj 337 74 * 0.1075;
#X obj 57 178 / 0.343;
#X obj 273 177 / 0.343;
#X obj 48 22 inlet~ audioL;
#X obj 56 311 outlet~ L;
#X obj 273 308 outlet~ R;
#X obj 48 45 delwrite~ \$0-delay 2000;
#X obj 273 282 delread4~ \$0-delay;
#X text 436 75 positions ears;
#X text 407 149 distance / vitesse;
#X obj 74 206 lop~ 2000;
#X obj 57 246 mix~;
#X floatatom 133 230 5 0 0 0 - - -;
#X obj 306 202 lop~ 2000;
#X obj 273 237 mix~;
#X floatatom 365 226 5 0 0 0 - - -;
#X connect 0 0 9 1;
#X connect 0 0 10 1;
#X connect 0 1 3 0;
#X connect 0 1 4 1;
#X connect 0 2 3 1;
#X connect 0 2 4 0;
#X connect 1 0 7 1;
#X connect 1 0 8 1;
#X connect 2 0 16 0;
#X connect 3 0 12 0;
#X connect 4 0 11 0;
#X connect 5 0 13 0;
#X connect 6 0 14 0;
#X connect 7 0 5 0;
#X connect 8 0 6 0;
#X connect 9 0 7 0;
#X connect 10 0 8 0;
#X connect 11 0 9 0;
#X connect 12 0 10 0;
#X connect 13 0 22 0;
#X connect 13 0 23 0;
#X connect 14 0 26 0;
#X connect 14 0 25 0;
#X connect 15 0 18 0;
#X connect 19 0 17 0;
#X connect 22 0 23 1;
#X connect 23 0 2 0;
#X connect 24 0 23 2;
#X connect 25 0 26 1;
#X connect 26 0 19 0;
#X connect 27 0 26 2;
#X restore 204 136 pd gauch droit;
#N canvas 1285 119 450 660 verberation 0;
#X obj 21 232 inlet~ audio;
#X obj 22 257 pan~;
#X obj 23 403 mix~;
#X obj 77 403 mix~;
#X obj 33 284 rev3~ 100 75 3000 90;
#X obj 269 17 inlet position;
#X obj 270 226 / 10;
#X obj 270 250 swap 1;
#X obj 270 274 / 0.01;
#X obj 270 298 clip 0 1;
#X obj 270 322 lerp 0.9 0.3;
#X obj 147 17 camera-vectors;
#X obj 147 48 vec3/sub;
#X obj 147 76 vec3/dot;
#X obj 238 74 vec3/len;
#X obj 147 100 /;
#X obj 147 124 * -1;
#X obj 147 154 norm -1 1;
#X obj 23 456 outlet~ l;
#X obj 121 456 outlet~ r;
#X connect 0 0 1 0;
#X connect 1 0 2 0;
#X connect 1 0 4 0;
#X connect 1 1 4 1;
#X connect 1 1 3 0;
#X connect 2 0 18 0;
#X connect 3 0 19 0;
#X connect 4 0 2 1;
#X connect 4 1 3 1;
#X connect 5 0 6 0;
#X connect 5 0 12 1;
#X connect 6 0 7 0;
#X connect 7 0 8 0;
#X connect 8 0 9 0;
#X connect 9 0 10 0;
#X connect 10 0 2 2;
#X connect 10 0 3 2;
#X connect 11 0 12 0;
#X connect 11 1 13 1;
#X connect 12 0 13 0;
#X connect 12 0 14 0;
#X connect 13 0 15 0;
#X connect 14 0 15 1;
#X connect 15 0 16 0;
#X connect 16 0 17 0;
#X connect 17 0 1 1;
#X restore 50 140 pd verberation;
#X obj 54 207 outlet~ l;
#X obj 182 206 outlet~ r;
#X connect 0 0 2 0;
#X connect 1 0 2 1;
#X connect 1 0 4 1;
#X connect 1 0 3 1;
#X connect 2 0 4 0;
#X connect 2 0 3 0;
#X connect 3 0 5 0;
#X connect 3 1 6 0;
#X connect 4 0 5 0;
#X connect 4 1 6 0;
