#N canvas 1383 154 450 300 12;
#X obj 38 29 inlet~ audio;
#X obj 156 28 inlet position;
#N canvas 1353 380 450 300 distance 0;
#X obj 43 25 inlet~ audio;
#X obj 161 28 inlet position;
#X obj 44 265 outlet~;
#X obj 295 30 camera-vectors;
#X obj 161 107 vec3/len;
#X obj 161 135 norm 1 100;
#X obj 161 77 vec3/sub;
#X obj 43 236 *~ 1;
#X floatatom 161 190 5 0 0 0 - - -;
#X obj 161 159 lerp 1 0.01;
#X connect 0 0 7 0;
#X connect 1 0 6 0;
#X connect 3 0 6 1;
#X connect 4 0 5 0;
#X connect 5 0 9 0;
#X connect 6 0 4 0;
#X connect 7 0 2 0;
#X connect 9 0 8 0;
#X connect 9 0 7 1;
#X restore 51 92 pd distance;
#N canvas 726 125 450 300 gauch 1;
#X obj 28 21 inlet~ audio;
#X obj 262 23 camera-vectors;
#X obj 59 76 inlet position;
#X obj 273 240 outlet~ D;
#X obj 56 243 outlet~ G;
#X obj 57 219 delread4~ \$0-delay;
#X obj 273 214 delread4~ \$0-delay;
#X obj 337 55 vec3/crs;
#X obj 257 54 vec3/crs;
#X obj 57 154 vec3/len;
#X obj 273 156 vec3/len;
#X obj 57 133 vec3/sub;
#X obj 273 135 vec3/sub;
#X obj 257 96 vec3/add;
#X obj 337 95 vec3/add;
#X obj 57 178 / 343;
#X obj 273 177 / 343;
#X obj 257 75 * 0.1075;
#X obj 337 74 * 0.1075;
#X obj 28 44 delwrite~ \$0-delay 2000;
#X connect 0 0 19 0;
#X connect 1 0 13 1;
#X connect 1 0 14 1;
#X connect 1 1 7 0;
#X connect 1 1 8 1;
#X connect 1 2 7 1;
#X connect 1 2 8 0;
#X connect 2 0 11 1;
#X connect 2 0 12 1;
#X connect 5 0 4 0;
#X connect 6 0 3 0;
#X connect 7 0 18 0;
#X connect 8 0 17 0;
#X connect 9 0 15 0;
#X connect 10 0 16 0;
#X connect 11 0 9 0;
#X connect 12 0 10 0;
#X connect 13 0 11 0;
#X connect 14 0 12 0;
#X connect 15 0 5 0;
#X connect 16 0 6 0;
#X connect 17 0 13 0;
#X connect 18 0 14 0;
#X restore 50 133 pd gauch droit;
#X obj 31 185 outlet~ G;
#X obj 178 188 outlet~ D;
#X connect 0 0 2 0;
#X connect 1 0 2 1;
#X connect 1 0 3 1;
#X connect 2 0 3 0;
#X connect 2 0 4 0;
#X connect 2 0 5 0;
