#N canvas 1321 585 450 300 12;
#X obj 17 8 inlet~ audio;
#X obj 80 259 outlet~;
#X obj 87 44 lop~ 300;
#X obj 87 74 *~;
#X obj 168 2 osc~ 3;
#X obj 168 26 norm~ -1 1;
#X obj 168 50 lerp~ 0.5 1;
#X obj 87 98 rev2~ 100 90 100 90;
#X obj 18 224 mix~;
#X obj 134 136 inlet;
#X floatatom 134 160 5 0 0 0 - - -;
#X connect 0 0 2 0;
#X connect 0 0 8 0;
#X connect 2 0 3 0;
#X connect 3 0 7 0;
#X connect 4 0 5 0;
#X connect 5 0 6 0;
#X connect 6 0 3 1;
#X connect 7 0 8 1;
#X connect 8 0 1 0;
#X connect 9 0 10 0;
#X connect 10 0 8 2;
